# Blender 4.4.3
# www.blender.org
mtllib CoinScaleBarrier.mtl
o Cone
v 1.017469 3.030526 5.865367
v 0.998254 2.737891 5.865367
v 0.941348 2.456501 5.865367
v 0.848938 2.197171 5.865367
v 0.724575 1.969866 5.865367
v 0.573039 1.783322 5.865367
v 0.400152 1.644707 5.865367
v 0.212559 1.559348 5.865367
v 0.017468 1.530526 5.865367
v -0.177622 1.559348 5.865367
v -0.365215 1.644707 5.865367
v -0.538102 1.783322 5.865367
v -0.689638 1.969866 5.865367
v -0.814001 2.197171 5.865367
v -0.906411 2.456501 5.865367
v -0.963317 2.737891 5.865367
v -0.982531 3.030526 5.865367
v -0.963317 3.323162 5.865367
v -0.906411 3.604551 5.865367
v -0.814001 3.863882 5.865367
v -0.689638 4.091187 5.865367
v -0.538102 4.277730 5.865367
v -0.365215 4.416346 5.865367
v -0.177622 4.501704 5.865367
v 0.017469 4.530526 5.865367
v 0.212559 4.501704 5.865367
v 0.400152 4.416346 5.865367
v 0.573039 4.277730 5.865367
v 0.724575 4.091187 5.865367
v 0.848938 3.863882 5.865367
v 0.941348 3.604551 5.865367
v 0.998254 3.323162 5.865367
v 0.017468 3.030526 9.865368
v 0.484772 2.500000 3.218015
v 0.484772 3.500000 3.218015
v 0.484771 2.500000 7.218015
v 0.484771 3.500000 7.218015
v -0.515228 2.500000 3.218015
v -0.515228 3.500000 3.218015
v -0.515229 2.500000 7.218015
v -0.515229 3.500000 7.218015
vn 0.9682 -0.0636 0.2420
vn 0.9498 -0.1921 0.2469
vn 0.9104 -0.3244 0.2568
vn 0.8443 -0.4619 0.2717
vn 0.7425 -0.6032 0.2912
vn 0.5940 -0.7409 0.3135
vn 0.3903 -0.8578 0.3345
vn 0.1370 -0.9275 0.3478
vn -0.1370 -0.9275 0.3478
vn -0.3903 -0.8578 0.3345
vn -0.5940 -0.7409 0.3135
vn -0.7425 -0.6032 0.2912
vn -0.8443 -0.4619 0.2717
vn -0.9104 -0.3244 0.2568
vn -0.9498 -0.1921 0.2469
vn -0.9682 -0.0636 0.2420
vn -0.9682 0.0636 0.2420
vn -0.9498 0.1921 0.2469
vn -0.9104 0.3244 0.2568
vn -0.8443 0.4619 0.2717
vn -0.7425 0.6032 0.2912
vn -0.5940 0.7409 0.3135
vn -0.3903 0.8578 0.3345
vn -0.1370 0.9275 0.3478
vn 0.1370 0.9275 0.3478
vn 0.3903 0.8578 0.3345
vn 0.5940 0.7409 0.3135
vn 0.7425 0.6032 0.2912
vn 0.8443 0.4619 0.2717
vn 0.9104 0.3244 0.2568
vn -0.0000 -0.0000 -1.0000
vn 0.9498 0.1921 0.2469
vn 0.9682 0.0636 0.2420
vn 1.0000 -0.0000 -0.0000
vn -0.0000 -0.0000 1.0000
vn -1.0000 -0.0000 -0.0000
vn -0.0000 -1.0000 -0.0000
vn -0.0000 1.0000 -0.0000
vt 0.250000 0.490000
vt 0.250000 0.250000
vt 0.296822 0.485388
vt 0.341844 0.471731
vt 0.383337 0.449553
vt 0.419706 0.419706
vt 0.449553 0.383337
vt 0.471731 0.341844
vt 0.485388 0.296822
vt 0.490000 0.250000
vt 0.485388 0.203178
vt 0.471731 0.158156
vt 0.449553 0.116663
vt 0.419706 0.080294
vt 0.383337 0.050447
vt 0.341844 0.028269
vt 0.296822 0.014612
vt 0.250000 0.010000
vt 0.203178 0.014612
vt 0.158156 0.028269
vt 0.116663 0.050447
vt 0.080294 0.080294
vt 0.050447 0.116663
vt 0.028269 0.158156
vt 0.014612 0.203178
vt 0.010000 0.250000
vt 0.014612 0.296822
vt 0.028269 0.341844
vt 0.050447 0.383337
vt 0.080294 0.419706
vt 0.116663 0.449553
vt 0.158156 0.471731
vt 0.750000 0.490000
vt 0.796822 0.485388
vt 0.841844 0.471731
vt 0.883337 0.449553
vt 0.919706 0.419706
vt 0.949553 0.383337
vt 0.971731 0.341844
vt 0.985388 0.296822
vt 0.990000 0.250000
vt 0.985388 0.203178
vt 0.971731 0.158156
vt 0.949553 0.116663
vt 0.919706 0.080294
vt 0.883337 0.050447
vt 0.841844 0.028269
vt 0.796822 0.014612
vt 0.750000 0.010000
vt 0.703178 0.014612
vt 0.658156 0.028269
vt 0.616663 0.050447
vt 0.580294 0.080294
vt 0.550447 0.116663
vt 0.528269 0.158156
vt 0.514612 0.203178
vt 0.510000 0.250000
vt 0.514612 0.296822
vt 0.528269 0.341844
vt 0.550447 0.383337
vt 0.580294 0.419706
vt 0.616663 0.449553
vt 0.658156 0.471731
vt 0.703178 0.485388
vt 0.203178 0.485388
vt 0.375000 0.000000
vt 0.625000 0.000000
vt 0.625000 0.250000
vt 0.375000 0.250000
vt 0.625000 0.500000
vt 0.375000 0.500000
vt 0.625000 0.750000
vt 0.375000 0.750000
vt 0.625000 1.000000
vt 0.375000 1.000000
vt 0.125000 0.500000
vt 0.125000 0.750000
vt 0.875000 0.500000
vt 0.875000 0.750000
s 0
f 1/1/1 33/2/1 2/3/1
f 2/3/2 33/2/2 3/4/2
f 3/4/3 33/2/3 4/5/3
f 4/5/4 33/2/4 5/6/4
f 5/6/5 33/2/5 6/7/5
f 6/7/6 33/2/6 7/8/6
f 7/8/7 33/2/7 8/9/7
f 8/9/8 33/2/8 9/10/8
f 9/10/9 33/2/9 10/11/9
f 10/11/10 33/2/10 11/12/10
f 11/12/11 33/2/11 12/13/11
f 12/13/12 33/2/12 13/14/12
f 13/14/13 33/2/13 14/15/13
f 14/15/14 33/2/14 15/16/14
f 15/16/15 33/2/15 16/17/15
f 16/17/16 33/2/16 17/18/16
f 17/18/17 33/2/17 18/19/17
f 18/19/18 33/2/18 19/20/18
f 19/20/19 33/2/19 20/21/19
f 20/21/20 33/2/20 21/22/20
f 21/22/21 33/2/21 22/23/21
f 22/23/22 33/2/22 23/24/22
f 23/24/23 33/2/23 24/25/23
f 24/25/24 33/2/24 25/26/24
f 25/26/25 33/2/25 26/27/25
f 26/27/26 33/2/26 27/28/26
f 27/28/27 33/2/27 28/29/27
f 28/29/28 33/2/28 29/30/28
f 29/30/29 33/2/29 30/31/29
f 30/31/30 33/2/30 31/32/30
f 1/33/31 2/34/31 3/35/31 4/36/31 5/37/31 6/38/31 7/39/31 8/40/31 9/41/31 10/42/31 11/43/31 12/44/31 13/45/31 14/46/31 15/47/31 16/48/31 17/49/31 18/50/31 19/51/31 20/52/31 21/53/31 22/54/31 23/55/31 24/56/31 25/57/31 26/58/31 27/59/31 28/60/31 29/61/31 30/62/31 31/63/31 32/64/31
f 31/32/32 33/2/32 32/65/32
f 32/65/33 33/2/33 1/1/33
f 34/66/34 35/67/34 37/68/34 36/69/34
f 36/69/35 37/68/35 41/70/35 40/71/35
f 40/71/36 41/70/36 39/72/36 38/73/36
f 38/73/31 39/72/31 35/74/31 34/75/31
f 36/76/37 40/71/37 38/73/37 34/77/37
f 41/70/38 37/78/38 35/79/38 39/72/38
o Cone.001
v -1.032697 3.030526 -0.647352
v -1.013482 2.737891 -0.647352
v -0.956577 2.456501 -0.647352
v -0.864167 2.197171 -0.647352
v -0.739804 1.969866 -0.647352
v -0.588267 1.783322 -0.647352
v -0.415381 1.644707 -0.647352
v -0.227787 1.559348 -0.647352
v -0.032697 1.530526 -0.647352
v 0.162393 1.559348 -0.647352
v 0.349986 1.644707 -0.647352
v 0.522873 1.783322 -0.647352
v 0.674410 1.969866 -0.647352
v 0.798773 2.197171 -0.647352
v 0.891182 2.456501 -0.647352
v 0.948088 2.737891 -0.647352
v 0.967303 3.030526 -0.647352
v 0.948088 3.323162 -0.647352
v 0.891182 3.604551 -0.647352
v 0.798773 3.863882 -0.647352
v 0.674410 4.091187 -0.647352
v 0.522873 4.277730 -0.647352
v 0.349986 4.416346 -0.647352
v 0.162393 4.501704 -0.647352
v -0.032697 4.530526 -0.647352
v -0.227787 4.501704 -0.647352
v -0.415380 4.416346 -0.647352
v -0.588267 4.277730 -0.647352
v -0.739804 4.091187 -0.647352
v -0.864167 3.863882 -0.647352
v -0.956577 3.604551 -0.647352
v -1.013482 3.323162 -0.647352
v -0.032697 3.030526 -4.647352
v -0.500000 2.500000 2.000000
v -0.500000 3.500000 2.000000
v -0.500000 2.500000 -2.000000
v -0.500000 3.500000 -2.000000
v 0.500000 2.500000 2.000000
v 0.500000 3.500000 2.000000
v 0.500000 2.500000 -2.000000
v 0.500000 3.500000 -2.000000
vn -0.9682 -0.0636 -0.2420
vn -0.9498 -0.1921 -0.2469
vn -0.9104 -0.3244 -0.2568
vn -0.8443 -0.4619 -0.2717
vn -0.7425 -0.6032 -0.2912
vn -0.5940 -0.7409 -0.3135
vn -0.3903 -0.8578 -0.3345
vn -0.1370 -0.9275 -0.3478
vn 0.1370 -0.9275 -0.3478
vn 0.3903 -0.8578 -0.3345
vn 0.5940 -0.7409 -0.3135
vn 0.7425 -0.6032 -0.2912
vn 0.8443 -0.4619 -0.2717
vn 0.9104 -0.3244 -0.2568
vn 0.9498 -0.1921 -0.2469
vn 0.9682 -0.0636 -0.2420
vn 0.9682 0.0636 -0.2420
vn 0.9498 0.1921 -0.2469
vn 0.9104 0.3244 -0.2568
vn 0.8443 0.4619 -0.2717
vn 0.7425 0.6032 -0.2912
vn 0.5940 0.7409 -0.3135
vn 0.3903 0.8578 -0.3345
vn 0.1370 0.9275 -0.3478
vn -0.1370 0.9275 -0.3478
vn -0.3903 0.8578 -0.3345
vn -0.5940 0.7409 -0.3135
vn -0.7425 0.6032 -0.2912
vn -0.8443 0.4619 -0.2717
vn -0.9104 0.3244 -0.2568
vn -0.0000 -0.0000 1.0000
vn -0.9498 0.1921 -0.2469
vn -0.9682 0.0636 -0.2420
vn -1.0000 -0.0000 -0.0000
vn -0.0000 -0.0000 -1.0000
vn 1.0000 -0.0000 -0.0000
vn -0.0000 -1.0000 -0.0000
vn -0.0000 1.0000 -0.0000
vt 0.250000 0.490000
vt 0.250000 0.250000
vt 0.296822 0.485388
vt 0.341844 0.471731
vt 0.383337 0.449553
vt 0.419706 0.419706
vt 0.449553 0.383337
vt 0.471731 0.341844
vt 0.485388 0.296822
vt 0.490000 0.250000
vt 0.485388 0.203178
vt 0.471731 0.158156
vt 0.449553 0.116663
vt 0.419706 0.080294
vt 0.383337 0.050447
vt 0.341844 0.028269
vt 0.296822 0.014612
vt 0.250000 0.010000
vt 0.203178 0.014612
vt 0.158156 0.028269
vt 0.116663 0.050447
vt 0.080294 0.080294
vt 0.050447 0.116663
vt 0.028269 0.158156
vt 0.014612 0.203178
vt 0.010000 0.250000
vt 0.014612 0.296822
vt 0.028269 0.341844
vt 0.050447 0.383337
vt 0.080294 0.419706
vt 0.116663 0.449553
vt 0.158156 0.471731
vt 0.750000 0.490000
vt 0.796822 0.485388
vt 0.841844 0.471731
vt 0.883337 0.449553
vt 0.919706 0.419706
vt 0.949553 0.383337
vt 0.971731 0.341844
vt 0.985388 0.296822
vt 0.990000 0.250000
vt 0.985388 0.203178
vt 0.971731 0.158156
vt 0.949553 0.116663
vt 0.919706 0.080294
vt 0.883337 0.050447
vt 0.841844 0.028269
vt 0.796822 0.014612
vt 0.750000 0.010000
vt 0.703178 0.014612
vt 0.658156 0.028269
vt 0.616663 0.050447
vt 0.580294 0.080294
vt 0.550447 0.116663
vt 0.528269 0.158156
vt 0.514612 0.203178
vt 0.510000 0.250000
vt 0.514612 0.296822
vt 0.528269 0.341844
vt 0.550447 0.383337
vt 0.580294 0.419706
vt 0.616663 0.449553
vt 0.658156 0.471731
vt 0.703178 0.485388
vt 0.203178 0.485388
vt 0.375000 0.000000
vt 0.625000 0.000000
vt 0.625000 0.250000
vt 0.375000 0.250000
vt 0.625000 0.500000
vt 0.375000 0.500000
vt 0.625000 0.750000
vt 0.375000 0.750000
vt 0.625000 1.000000
vt 0.375000 1.000000
vt 0.125000 0.500000
vt 0.125000 0.750000
vt 0.875000 0.500000
vt 0.875000 0.750000
s 0
f 42/80/39 74/81/39 43/82/39
f 43/82/40 74/81/40 44/83/40
f 44/83/41 74/81/41 45/84/41
f 45/84/42 74/81/42 46/85/42
f 46/85/43 74/81/43 47/86/43
f 47/86/44 74/81/44 48/87/44
f 48/87/45 74/81/45 49/88/45
f 49/88/46 74/81/46 50/89/46
f 50/89/47 74/81/47 51/90/47
f 51/90/48 74/81/48 52/91/48
f 52/91/49 74/81/49 53/92/49
f 53/92/50 74/81/50 54/93/50
f 54/93/51 74/81/51 55/94/51
f 55/94/52 74/81/52 56/95/52
f 56/95/53 74/81/53 57/96/53
f 57/96/54 74/81/54 58/97/54
f 58/97/55 74/81/55 59/98/55
f 59/98/56 74/81/56 60/99/56
f 60/99/57 74/81/57 61/100/57
f 61/100/58 74/81/58 62/101/58
f 62/101/59 74/81/59 63/102/59
f 63/102/60 74/81/60 64/103/60
f 64/103/61 74/81/61 65/104/61
f 65/104/62 74/81/62 66/105/62
f 66/105/63 74/81/63 67/106/63
f 67/106/64 74/81/64 68/107/64
f 68/107/65 74/81/65 69/108/65
f 69/108/66 74/81/66 70/109/66
f 70/109/67 74/81/67 71/110/67
f 71/110/68 74/81/68 72/111/68
f 42/112/69 43/113/69 44/114/69 45/115/69 46/116/69 47/117/69 48/118/69 49/119/69 50/120/69 51/121/69 52/122/69 53/123/69 54/124/69 55/125/69 56/126/69 57/127/69 58/128/69 59/129/69 60/130/69 61/131/69 62/132/69 63/133/69 64/134/69 65/135/69 66/136/69 67/137/69 68/138/69 69/139/69 70/140/69 71/141/69 72/142/69 73/143/69
f 72/111/70 74/81/70 73/144/70
f 73/144/71 74/81/71 42/80/71
f 75/145/72 76/146/72 78/147/72 77/148/72
f 77/148/73 78/147/73 82/149/73 81/150/73
f 81/150/74 82/149/74 80/151/74 79/152/74
f 79/152/69 80/151/69 76/153/69 75/154/69
f 77/155/75 81/150/75 79/152/75 75/156/75
f 82/149/76 78/157/76 76/158/76 80/151/76
